<?xml version="1.0" standalone="no"?>
<!DOCTYPE svg PUBLIC "-//W3C//DTD SVG 20010904//EN"
 "http://www.w3.org/TR/2001/REC-SVG-20010904/DTD/svg10.dtd">
<svg version="1.0" xmlns="http://www.w3.org/2000/svg"
 width="32.000000pt" height="32.000000pt" viewBox="0 0 32.000000 32.000000"
 preserveAspectRatio="xMidYMid meet">

<g transform="translate(0.000000,32.000000) scale(0.100000,-0.100000)"
fill="#000000" stroke="none">
<path d="M88 264 c-10 -9 4 -44 17 -44 6 0 20 10 31 22 18 21 18 21 0 15 -10
-4 -24 -3 -31 3 -6 5 -14 7 -17 4z"/>
<path d="M265 70 c-11 -5 -63 -23 -115 -39 l-95 -30 133 0 132 -1 0 40 c0 43
-12 49 -55 30z"/>
</g>
</svg>
